<mxfile host="app.diagrams.net" agent="Mozilla/5.0 (Macintosh; Intel Mac OS X 10_15_7) AppleWebKit/537.36 (KHTML, like Gecko) Chrome/131.0.0.0 Safari/537.36" version="25.0.3">
  <diagram name="Page-1" id="BbtnsKczgVkzt1ZsItRZ">
    <mxGraphModel dx="798" dy="519" grid="1" gridSize="10" guides="1" tooltips="1" connect="1" arrows="1" fold="1" page="1" pageScale="1" pageWidth="583" pageHeight="413" math="1" shadow="0">
      <root>
        <mxCell id="0" />
        <mxCell id="1" parent="0" />
        <mxCell id="V5eOXjOKNnNjbI3axiPP-1" value="&lt;font style=&quot;font-size: 24px;&quot;&gt;\(A_0\)&lt;/font&gt;" style="text;html=1;align=center;verticalAlign=middle;resizable=0;points=[];autosize=1;strokeColor=none;fillColor=none;" vertex="1" parent="1">
          <mxGeometry y="80" width="100" height="40" as="geometry" />
        </mxCell>
        <mxCell id="V5eOXjOKNnNjbI3axiPP-2" value="&lt;font style=&quot;font-size: 24px;&quot;&gt;\(L_1\)&lt;/font&gt;" style="text;html=1;align=center;verticalAlign=middle;resizable=0;points=[];autosize=1;strokeColor=none;fillColor=none;" vertex="1" parent="1">
          <mxGeometry x="180" y="80" width="90" height="40" as="geometry" />
        </mxCell>
        <mxCell id="V5eOXjOKNnNjbI3axiPP-3" value="&lt;font style=&quot;font-size: 24px;&quot;&gt;\(A_1\)&lt;/font&gt;" style="text;html=1;align=center;verticalAlign=middle;resizable=0;points=[];autosize=1;strokeColor=none;fillColor=none;" vertex="1" parent="1">
          <mxGeometry x="340" y="80" width="100" height="40" as="geometry" />
        </mxCell>
        <mxCell id="V5eOXjOKNnNjbI3axiPP-4" value="&lt;font style=&quot;font-size: 24px;&quot;&gt;\(Y\)&lt;/font&gt;" style="text;html=1;align=center;verticalAlign=middle;resizable=0;points=[];autosize=1;strokeColor=none;fillColor=none;" vertex="1" parent="1">
          <mxGeometry x="500" y="80" width="70" height="40" as="geometry" />
        </mxCell>
        <mxCell id="V5eOXjOKNnNjbI3axiPP-5" value="&lt;font style=&quot;font-size: 24px;&quot;&gt;\(U_1\)&lt;/font&gt;" style="text;html=1;align=center;verticalAlign=middle;resizable=0;points=[];autosize=1;strokeColor=none;fillColor=none;" vertex="1" parent="1">
          <mxGeometry x="175" y="260" width="100" height="40" as="geometry" />
        </mxCell>
        <mxCell id="V5eOXjOKNnNjbI3axiPP-7" value="" style="endArrow=classic;html=1;rounded=0;" edge="1" parent="1" source="V5eOXjOKNnNjbI3axiPP-1" target="V5eOXjOKNnNjbI3axiPP-2">
          <mxGeometry width="50" height="50" relative="1" as="geometry">
            <mxPoint x="270" y="240" as="sourcePoint" />
            <mxPoint x="320" y="190" as="targetPoint" />
          </mxGeometry>
        </mxCell>
        <mxCell id="V5eOXjOKNnNjbI3axiPP-8" value="" style="endArrow=classic;html=1;rounded=0;" edge="1" parent="1">
          <mxGeometry width="50" height="50" relative="1" as="geometry">
            <mxPoint x="260" y="99.64" as="sourcePoint" />
            <mxPoint x="340" y="99.64" as="targetPoint" />
          </mxGeometry>
        </mxCell>
        <mxCell id="V5eOXjOKNnNjbI3axiPP-10" value="" style="endArrow=classic;html=1;rounded=0;exitX=0.473;exitY=-0.074;exitDx=0;exitDy=0;exitPerimeter=0;entryX=0.462;entryY=1.033;entryDx=0;entryDy=0;entryPerimeter=0;" edge="1" parent="1" source="V5eOXjOKNnNjbI3axiPP-5" target="V5eOXjOKNnNjbI3axiPP-2">
          <mxGeometry width="50" height="50" relative="1" as="geometry">
            <mxPoint x="110" y="110" as="sourcePoint" />
            <mxPoint x="190" y="110" as="targetPoint" />
          </mxGeometry>
        </mxCell>
        <mxCell id="V5eOXjOKNnNjbI3axiPP-11" value="" style="endArrow=classic;html=1;rounded=0;exitX=0.73;exitY=-0.021;exitDx=0;exitDy=0;exitPerimeter=0;entryX=0.196;entryY=1.033;entryDx=0;entryDy=0;entryPerimeter=0;curved=1;" edge="1" parent="1" source="V5eOXjOKNnNjbI3axiPP-5" target="V5eOXjOKNnNjbI3axiPP-4">
          <mxGeometry width="50" height="50" relative="1" as="geometry">
            <mxPoint x="232" y="267" as="sourcePoint" />
            <mxPoint x="232" y="131" as="targetPoint" />
            <Array as="points">
              <mxPoint x="450" y="260" />
            </Array>
          </mxGeometry>
        </mxCell>
      </root>
    </mxGraphModel>
  </diagram>
</mxfile>
